<?xml version="1.0" encoding="UTF-8"?>
<svg width="19px" height="17px" viewBox="0 0 19 17" version="1.1" xmlns="http://www.w3.org/2000/svg" xmlns:xlink="http://www.w3.org/1999/xlink">
    <!-- Generator: Sketch 58 (84663) - https://sketch.com -->
    <title>icon-book</title>
    <desc>Created with Sketch.</desc>
    <g id="3-products" stroke="none" stroke-width="1" fill="none" fill-rule="evenodd">
        <g id="MB/Main_page/destop/3products" transform="translate(-789.000000, -1024.000000)" fill="#FFFFFF" fill-rule="nonzero">
            <g id="choose_your-plan" transform="translate(207.000000, 965.000000)">
                <g id="plans" transform="translate(449.000000, 54.000000)">
                    <g id="save-copy-4" transform="translate(18.000000, 0.000000)">
                        <g id="book" transform="translate(115.000000, 5.000000)">
                            <g id="icon-book" transform="translate(0.000000, 0.036078)">
                                <path d="M15.39,12.2759217 L15.39,15.8664198 C15.39,16.3256274 14.8337712,16.5488196 14.514138,16.229231 L13.851,15.5658438 L13.187862,16.229231 C12.865869,16.551179 12.312,16.3233021 12.312,15.8664198 L12.312,12.2759217 L15.39,12.2759217 Z" id="Path"></path>
                                <path d="M15.7266562,10.9107621 L15.7266562,0.545538107 C15.7266562,0.244255595 15.484408,7.30839389e-13 15.1856016,7.30839389e-13 L11.3982187,7.30839389e-13 C10.5033143,7.30839389e-13 9.77505469,0.734294293 9.77505469,1.63661432 L9.77505469,11.4657562 C10.2374761,11.1118839 10.8063049,10.9107621 11.3982187,10.9107621 L15.7266562,10.9107621 Z" id="Path"></path>
                                <path d="M2.74134375,10.9107621 L2.74134375,0.545538107 C2.74134375,0.244255595 2.98359197,7.30839389e-13 3.28239844,7.30839389e-13 L7.06978125,7.30839389e-13 C7.9646857,7.30839389e-13 8.69294531,0.734294293 8.69294531,1.63661432 L8.69294531,11.4657562 C8.23052391,11.1118839 7.66169508,10.9107621 7.06978125,10.9107621 L2.74134375,10.9107621 Z" id="Path"></path>
                                <path d="M10.8932344,12.0838509 C10.5247401,12.2069243 10.2084034,12.4638364 10.001937,12.8216003 C9.90490781,12.989626 9.72672047,13.0929146 9.534105,13.0929146 L8.933895,13.0929146 C8.74127953,13.0929146 8.56309219,12.989626 8.46606305,12.8216003 C8.16992578,12.3084308 7.64798836,12.0018384 7.06978125,12.0018384 L2.20028906,12.0018384 C1.90162687,12.0018384 1.65923438,11.7574373 1.65923438,11.4563003 L1.65923438,1.09107621 L0.541054687,1.09107621 C0.2423925,1.09107621 0,1.33547729 0,1.63661432 L0,13.6384527 C0,13.9395897 0.2423925,14.1839908 0.541054687,14.1839908 L10.8932344,14.1839908 L10.8932344,12.0838509 Z" id="Path"></path>
                                <path d="M17.9269453,1.09107621 L16.8087656,1.09107621 L16.8087656,11.4563003 C16.8087656,11.7451445 16.5855625,11.9811807 16.3037813,11.9999835 L16.3037813,14.1839908 L17.9269453,14.1839908 C18.2256075,14.1839908 18.468,13.9395897 18.468,13.6384527 L18.468,1.63661432 C18.468,1.33547729 18.2256075,1.09107621 17.9269453,1.09107621 Z" id="Path"></path>
                            </g>
                        </g>
                    </g>
                </g>
            </g>
        </g>
    </g>
</svg>