<?xml version="1.0" encoding="UTF-8"?>
<svg width="89px" height="14px" viewBox="0 0 89 14" version="1.1" xmlns="http://www.w3.org/2000/svg" xmlns:xlink="http://www.w3.org/1999/xlink">
    <!-- Generator: Sketch 64 (93537) - https://sketch.com -->
    <title>Group 11 Copy 3</title>
    <desc>Created with Sketch.</desc>
    <g id="Landing-Desktop" stroke="none" stroke-width="1" fill="none" fill-rule="evenodd">
        <g id="MB_Main-Page-1" transform="translate(-139.000000, -4662.000000)" fill="#D8D8D8" fill-rule="nonzero">
            <g id="06" transform="translate(-6.000000, 3953.000000)">
                <g id="rews" transform="translate(0.000000, 422.000000)">
                    <g id="Group-11" transform="translate(125.000000, 124.000000)">
                        <g id="Group-11-Copy-3" transform="translate(20.000000, 163.000000)">
                            <g id="rate_star">
                                <polygon id="Path" fill="#FFC33B" points="7.5 10.7130435 12.125 14 10.375 8.64347826 15 5.47826087 9.375 5.47826087 7.5 0 5.625 5.47826087 0 5.47826087 4.625 8.64347826 2.875 14"></polygon>
                            </g>
                            <g id="rate_star-copy" transform="translate(74.000000, 0.000000)">
                                <polygon id="Path" fill="#FFC33B" points="7.5 10.7130435 12.125 14 10.375 8.64347826 15 5.47826087 9.375 5.47826087 7.5 0 5.625 5.47826087 0 5.47826087 4.625 8.64347826 2.875 14"></polygon>
                            </g>
                            <g id="rate_star-copy-2" transform="translate(56.000000, 0.000000)">
                                <polygon id="Path" fill="#FFC33B" points="7.5 10.7130435 12.125 14 10.375 8.64347826 15 5.47826087 9.375 5.47826087 7.5 0 5.625 5.47826087 0 5.47826087 4.625 8.64347826 2.875 14"></polygon>
                            </g>
                            <g id="rate_star-copy-3" transform="translate(37.000000, 0.000000)">
                                <polygon id="Path" fill="#FFC33B" points="7.5 10.7130435 12.125 14 10.375 8.64347826 15 5.47826087 9.375 5.47826087 7.5 0 5.625 5.47826087 0 5.47826087 4.625 8.64347826 2.875 14"></polygon>
                            </g>
                            <g id="rate_star-copy-4" transform="translate(19.000000, 0.000000)">
                                <polygon id="Path" fill="#FFC33B" points="7 10.7130435 11.3166667 14 9.68333333 8.64347826 14 5.47826087 8.75 5.47826087 7 0 5.25 5.47826087 0 5.47826087 4.31666667 8.64347826 2.68333333 14"></polygon>
                            </g>
                        </g>
                    </g>
                </g>
            </g>
        </g>
    </g>
</svg>