<?xml version="1.0" encoding="UTF-8"?>
<svg width="20px" height="20px" viewBox="0 0 20 20" version="1.1" xmlns="http://www.w3.org/2000/svg" xmlns:xlink="http://www.w3.org/1999/xlink">
    <!-- Generator: Sketch 64 (93537) - https://sketch.com -->
    <title>icon/action/check_circle_outline_24px copy 33</title>
    <desc>Created with Sketch.</desc>
    <g id="Landing-Desktop" stroke="none" stroke-width="1" fill="none" fill-rule="evenodd">
        <g id="MB_Main-Page-1" transform="translate(-770.000000, -1273.000000)" fill="#D8D8D8">
            <g id="02" transform="translate(230.000000, 835.000000)">
                <g id="Group-33" transform="translate(538.000000, 43.000000)">
                    <g id="Group-32" transform="translate(0.000000, 392.000000)">
                        <g id="icon/action/check_circle_outline_24px" transform="translate(0.000000, 1.000000)">
                            <g fill="none" id="icon/action/check_circle_outline_24px_2">
                                <path d="M12,2 C6.48,2 2,6.48 2,12 C2,17.52 6.48,22 12,22 C17.52,22 22,17.52 22,12 C22,6.48 17.52,2 12,2 Z M12,20 C7.59,20 4,16.41 4,12 C4,7.59 7.59,4 12,4 C16.41,4 20,7.59 20,12 C20,16.41 16.41,20 12,20 Z M10,14.17 L16.59,7.58 L18,9 L10,17 L6,13 L7.41,11.59 L10,14.17 Z" fill="#FFFFFF"></path>
                            </g>
                        </g>
                    </g>
                </g>
            </g>
        </g>
    </g>
</svg>