<svg width="25" height="26" viewBox="0 0 25 26" fill="none" xmlns="http://www.w3.org/2000/svg">
<path d="M12.15 0.850006C5.45022 0.850006 0 6.30023 0 13C0 19.6998 5.45022 25.15 12.15 25.15C18.8498 25.15 24.3 19.6998 24.3 13C24.3 6.30023 18.8498 0.850006 12.15 0.850006Z" fill="#0045FF"/>
<path d="M13.05 19.975C13.05 20.5963 12.5463 21.1 11.925 21.1C11.3037 21.1 10.8 20.5963 10.8 19.975C10.8 19.3537 11.3037 18.85 11.925 18.85C12.5463 18.85 13.05 19.3537 13.05 19.975Z" fill="white"/>
<path d="M13.2499 15.5089V15.9864C13.2499 16.5734 12.7583 17.05 12.15 17.05C11.5417 17.05 11.0501 16.5734 11.0501 15.9864V15.5089C11.0501 14.2675 11.8046 13.1296 12.9696 12.6094C14.0904 12.1106 14.8999 10.7862 14.8999 10.1363C14.8999 8.6708 13.6669 7.47733 12.15 7.47733C10.6331 7.47733 9.40006 8.6708 9.40006 10.1363C9.40006 10.7235 8.90821 11.2001 8.29993 11.2001C7.69165 11.2001 7.2 10.7235 7.2 10.1363C7.2 7.49759 9.42081 5.35001 12.15 5.35001C14.8792 5.35001 17.1 7.49759 17.1 10.1363C17.1 11.5735 15.8107 13.6858 13.8912 14.5419C13.5019 14.7153 13.2499 15.095 13.2499 15.5089Z" fill="white"/>
</svg>
