<?xml version="1.0" encoding="UTF-8"?>
<svg width="20px" height="20px" viewBox="0 0 20 20" version="1.1" xmlns="http://www.w3.org/2000/svg" xmlns:xlink="http://www.w3.org/1999/xlink">
    <!-- Generator: Sketch 58 (84663) - https://sketch.com -->
    <title>icon/action/assignment_24px</title>
    <desc>Created with Sketch.</desc>
    <defs>
        <path d="M9.99,0 C4.47,0 0,4.48 0,10 C0,15.52 4.47,20 9.99,20 C15.52,20 20,15.52 20,10 C20,4.48 15.52,0 9.99,0 Z M10,18 C5.58,18 2,14.42 2,10 C2,5.58 5.58,2 10,2 C14.42,2 18,5.58 18,10 C18,14.42 14.42,18 10,18 Z M10.5,5 L9,5 L9,11 L14.25,14.15 L15,12.92 L10.5,10.25 L10.5,5 Z" id="path-1"></path>
    </defs>
    <g id="Desktop_Full" stroke="none" stroke-width="1" fill="none" fill-rule="evenodd">
        <g id="MB_Desktop-Onboarding_03_4" transform="translate(-555.000000, -498.000000)">
            <g id="icon/action/assignment_24px" transform="translate(555.000000, 498.000000)">
                <mask id="mask-2" fill="white">
                    <use xlink:href="#path-1"></use>
                </mask>
                <use id="icon/action/query_builder_24px" fill="#1044FF" xlink:href="#path-1"></use>
            </g>
        </g>
    </g>
</svg>