<?xml version="1.0" encoding="UTF-8"?>
<svg width="15px" height="20px" viewBox="0 0 15 20" version="1.1" xmlns="http://www.w3.org/2000/svg" xmlns:xlink="http://www.w3.org/1999/xlink">
    <!-- Generator: Sketch 58 (84663) - https://sketch.com -->
    <title>icon/action/account_circle_24px</title>
    <desc>Created with Sketch.</desc>
    <defs>
        <path d="M18,8 C18,4.69 15.31,2 12,2 C8.69,2 6,4.69 6,8 C6,12.5 12,19 12,19 C12,19 18,12.5 18,8 Z M10,8 C10,6.9 10.9,6 12,6 C13.1,6 14,6.9 14,8 C14,9.1 13.11,10 12,10 C10.9,10 10,9.1 10,8 Z M5,20 L5,22 L19,22 L19,20 L5,20 Z" id="path-1"></path>
    </defs>
    <g id="OB_Short" stroke="none" stroke-width="1" fill="none" fill-rule="evenodd">
        <g id="MB_Short_Desktop-Onboarding_9" transform="translate(-929.000000, -18.000000)">
            <g id="Group-6">
                <g id="icon/maps/pin_drop_24px" transform="translate(924.500000, 16.000000)">
                    <mask id="mask-2" fill="white">
                        <use xlink:href="#path-1"></use>
                    </mask>
                    <use fill-opacity="0.5" fill="#FFFFFF" fill-rule="evenodd" xlink:href="#path-1"></use>
                </g>
            </g>
        </g>
    </g>
</svg>