<?xml version="1.0" encoding="UTF-8"?>
<svg width="20px" height="20px" viewBox="0 0 20 20" version="1.1" xmlns="http://www.w3.org/2000/svg" xmlns:xlink="http://www.w3.org/1999/xlink">
    <!-- Generator: Sketch 58 (84663) - https://sketch.com -->
    <title>icon/action/account_circle_24px</title>
    <desc>Created with Sketch.</desc>
    <defs>
        <polygon id="path-1" points="20.57 14.86 22 13.43 20.57 12 17 15.57 8.43 7 12 3.43 10.57 2 9.14 3.43 7.71 2 5.57 4.14 4.14 2.71 2.71 4.14 4.14 5.57 2 7.71 3.43 9.14 2 10.57 3.43 12 7 8.43 15.57 17 12 20.57 13.43 22 14.86 20.57 16.29 22 18.43 19.86 19.86 21.29 21.29 19.86 19.86 18.43 22 16.29"></polygon>
    </defs>
    <g id="Desktop_Full" stroke="none" stroke-width="1" fill="none" fill-rule="evenodd">
        <g id="MB_Desktop-Onboarding_03_3_A" transform="translate(-778.000000, -18.000000)">
            <g id="Group-6">
                <g id="icon/places/fitness_center_24px" transform="translate(776.000000, 16.000000)">
                    <mask id="mask-2" fill="white">
                        <use xlink:href="#path-1"></use>
                    </mask>
                    <use fill-opacity="0.5" fill="#FFFFFF" fill-rule="evenodd" xlink:href="#path-1"></use>
                </g>
            </g>
        </g>
    </g>
</svg>