<?xml version="1.0" encoding="UTF-8"?>
<svg width="18px" height="20px" viewBox="0 0 18 20" version="1.1" xmlns="http://www.w3.org/2000/svg" xmlns:xlink="http://www.w3.org/1999/xlink">
    <!-- Generator: Sketch 58 (84663) - https://sketch.com -->
    <title>icon/action/account_circle_24px</title>
    <desc>Created with Sketch.</desc>
    <defs>
        <path d="M16,6 L16,14 L19,14 L19,22 L21,22 L21,2 C18.24,2 16,4.24 16,6 Z M11,9 L9,9 L9,2 L7,2 L7,9 L5,9 L5,2 L3,2 L3,9 C3,11.21 4.79,13 7,13 L7,22 L9,22 L9,13 C11.21,13 13,11.21 13,9 L13,2 L11,2 L11,9 Z" id="path-1"></path>
    </defs>
    <g id="Desktop_Full" stroke="none" stroke-width="1" fill="none" fill-rule="evenodd">
        <g id="MB_Desktop-Onboarding_03_3_A" transform="translate(-956.000000, -18.000000)">
            <g id="Group-6">
                <g id="icon/maps/restaurant_24px" transform="translate(953.000000, 16.000000)">
                    <mask id="mask-2" fill="white">
                        <use xlink:href="#path-1"></use>
                    </mask>
                    <use fill-opacity="0.5" fill="#FFFFFF" fill-rule="evenodd" xlink:href="#path-1"></use>
                </g>
            </g>
        </g>
    </g>
</svg>