<?xml version="1.0" encoding="UTF-8"?>
<svg width="79px" height="21px" viewBox="0 0 79 21" version="1.1" xmlns="http://www.w3.org/2000/svg" xmlns:xlink="http://www.w3.org/1999/xlink">
    <!-- Generator: Sketch 63.1 (92452) - https://sketch.com -->
    <title>MB-logo</title>
    <desc>Created with Sketch.</desc>
    <g id="Landing-Mobile" stroke="none" stroke-width="1" fill="none" fill-rule="evenodd">
        <g id="MB_Purchase" transform="translate(-147.000000, -30.000000)">
            <g id="MB-logo" transform="translate(141.000000, 24.000000)">
                <g id="App-Icon/Square-Dark">
                    <g id="Group">
                        <rect id="Background" x="0" y="0" width="32" height="32"></rect>
                        <path d="M9.25523153,14.204979 L17.795021,22.7447685 C18.0314206,22.9811681 18.0925307,23.0915064 18.1327347,23.2241507 C18.1729387,23.356795 18.1729387,23.4924474 18.1327347,23.6250917 C18.0925307,23.757736 18.0314206,23.8680743 17.795021,24.1044739 L16.6798527,25.2196422 C16.4434531,25.4560418 16.3331148,25.5171519 16.2004705,25.5573559 C16.0678262,25.5975599 15.9321738,25.5975599 15.7995295,25.5573559 C15.6668852,25.5171519 15.5565469,25.4560418 15.3201473,25.2196422 L6.78035779,16.6798527 C6.54395819,16.4434531 6.48284809,16.3331148 6.44264407,16.2004705 C6.40244006,16.0678262 6.40244006,15.9321738 6.44264407,15.7995295 C6.48284809,15.6668852 6.54395819,15.5565469 6.78035779,15.3201473 L7.89552607,14.204979 C8.13192567,13.9685794 8.24226399,13.9074693 8.3749083,13.8672653 C8.50755261,13.8270613 8.64320499,13.8270613 8.7758493,13.8672653 C8.90849361,13.9074693 9.01883192,13.9685794 9.25523153,14.204979 Z M9.25523153,6.78035779 L25.2196422,22.7447685 C25.4560418,22.9811681 25.5171519,23.0915064 25.5573559,23.2241507 C25.5975599,23.356795 25.5975599,23.4924474 25.5573559,23.6250917 C25.5171519,23.757736 25.4560418,23.8680743 25.2196422,24.1044739 L24.1044739,25.2196422 C23.8680743,25.4560418 23.757736,25.5171519 23.6250917,25.5573559 C23.4924474,25.5975599 23.356795,25.5975599 23.2241507,25.5573559 C23.0915064,25.5171519 22.9811681,25.4560418 22.7447685,25.2196422 L6.78035779,9.25523153 C6.54395819,9.01883192 6.48284809,8.90849361 6.44264407,8.7758493 C6.40244006,8.64320499 6.40244006,8.50755261 6.44264407,8.3749083 C6.48284809,8.24226399 6.54395819,8.13192567 6.78035779,7.89552607 L7.89552607,6.78035779 C8.13192567,6.54395819 8.24226399,6.48284809 8.3749083,6.44264407 C8.50755261,6.40244006 8.64320499,6.40244006 8.7758493,6.44264407 C8.90849361,6.48284809 9.01883192,6.54395819 9.25523153,6.78035779 Z M17.9172896,11.6078367 L22.7447685,6.78035779 C22.9811681,6.54395819 23.0915064,6.48284809 23.2241507,6.44264407 C23.356795,6.40244006 23.4924474,6.40244006 23.6250917,6.44264407 C23.757736,6.48284809 23.8680743,6.54395819 24.1044739,6.78035779 L25.2196422,7.89552607 C25.4560418,8.13192567 25.5171519,8.24226399 25.5573559,8.3749083 C25.5975599,8.50755261 25.5975599,8.64320499 25.5573559,8.7758493 C25.5171519,8.90849361 25.4560418,9.01883192 25.2196422,9.25523153 L20.3921633,14.0827104 C20.1557637,14.31911 20.0454254,14.3802201 19.9127811,14.4204241 C19.7801368,14.4606281 19.6444844,14.4606281 19.5118401,14.4204241 C19.3791958,14.3802201 19.2688575,14.31911 19.0324579,14.0827104 L17.9172896,12.9675421 C17.68089,12.7311425 17.6197799,12.6208042 17.5795759,12.4881599 C17.5393719,12.3555156 17.5393719,12.2198632 17.5795759,12.0872189 C17.6197799,11.9545746 17.68089,11.8442363 17.9172896,11.6078367 Z M9.25523153,21.6296002 L10.3703998,22.7447685 C10.6067994,22.9811681 10.6679095,23.0915064 10.7081135,23.2241507 C10.7483175,23.356795 10.7483175,23.4924474 10.7081135,23.6250917 C10.6679095,23.757736 10.6067994,23.8680743 10.3703998,24.1044739 L9.25523153,25.2196422 C9.01883192,25.4560418 8.90849361,25.5171519 8.7758493,25.5573559 C8.64320499,25.5975599 8.50755261,25.5975599 8.3749083,25.5573559 C8.24226399,25.5171519 8.13192567,25.4560418 7.89552607,25.2196422 L6.78035779,24.1044739 C6.54395819,23.8680743 6.48284809,23.757736 6.44264407,23.6250917 C6.40244006,23.4924474 6.40244006,23.356795 6.44264407,23.2241507 C6.48284809,23.0915064 6.54395819,22.9811681 6.78035779,22.7447685 L7.89552607,21.6296002 C8.13192567,21.3932006 8.24226399,21.3320905 8.3749083,21.2918865 C8.50755261,21.2516825 8.64320499,21.2516825 8.7758493,21.2918865 C8.90849361,21.3320905 9.01883192,21.3932006 9.25523153,21.6296002 Z" id="Shape" fill="#1D1D1D"></path>
                    </g>
                </g>
                <path d="M38.2675781,14 L38.2675781,11.9011719 L38.109375,8.28359375 L40.1765625,14 L41.2628906,14 L43.3353516,8.27832031 L43.1771484,11.9011719 L43.1771484,14 L44.7644531,14 L44.7644531,6.321875 L42.6867187,6.321875 L40.725,11.890625 L38.7527344,6.321875 L36.6855469,6.321875 L36.6855469,14 L38.2675781,14 Z M49.1498438,14.1054688 C50.0603906,14.1054688 50.778457,13.8611328 51.304043,13.3724609 C51.8296289,12.8837891 52.0924219,12.2193359 52.0924219,11.3791016 L52.0924219,11.3791016 L52.0924219,6.321875 L50.5051172,6.321875 L50.5051172,11.4318359 C50.4910547,12.3669922 50.0392969,12.8345703 49.1498438,12.8345703 C48.7244531,12.8345703 48.3913477,12.7194336 48.1505273,12.4891602 C47.909707,12.2588867 47.7892969,11.8923828 47.7892969,11.3896484 L47.7892969,11.3896484 L47.7892969,6.321875 L46.2072656,6.321875 L46.2072656,11.4371094 C46.2178125,12.2667969 46.4867578,12.9189453 47.0141016,13.3935547 C47.5414453,13.8681641 48.2533594,14.1054688 49.1498438,14.1054688 Z M56.3090625,14.1054688 C57.1598438,14.1054688 57.8366016,13.9165039 58.3393359,13.5385742 C58.8420703,13.1606445 59.0934375,12.6394531 59.0934375,11.975 C59.0934375,11.3773438 58.8877734,10.878125 58.4764453,10.4773437 C58.0651172,10.0765625 57.4094531,9.74082031 56.5094531,9.47011719 C56.0207813,9.32246094 55.6507617,9.16425781 55.3993945,8.99550781 C55.1480273,8.82675781 55.0223438,8.61757812 55.0223438,8.36796875 C55.0223438,8.10078125 55.1295703,7.88544922 55.3440234,7.72197266 C55.5584766,7.55849609 55.8590625,7.47675781 56.2457813,7.47675781 C56.6465625,7.47675781 56.9576953,7.57431641 57.1791797,7.76943359 C57.4006641,7.96455078 57.5114063,8.23789062 57.5114063,8.58945312 L57.5114063,8.58945312 L59.0934375,8.58945312 C59.0934375,8.12890625 58.9747852,7.71757813 58.7374805,7.35546875 C58.5001758,6.99335937 58.1670703,6.71298828 57.7381641,6.51435547 C57.3092578,6.31572266 56.8205859,6.21640625 56.2721484,6.21640625 C55.7272266,6.21640625 55.235918,6.3078125 54.7982227,6.490625 C54.3605273,6.6734375 54.0247852,6.92744141 53.7909961,7.25263672 C53.557207,7.57783203 53.4403125,7.94785156 53.4403125,8.36269531 C53.4403125,9.16074219 53.87625,9.7953125 54.748125,10.2664062 C55.0680469,10.4386719 55.5022266,10.6135742 56.0506641,10.7911133 C56.5991016,10.9686523 56.9787891,11.1374023 57.1897266,11.2973633 C57.4006641,11.4573242 57.5061328,11.6867188 57.5061328,11.9855469 C57.5061328,12.2597656 57.4006641,12.4733398 57.1897266,12.6262695 C56.9787891,12.7791992 56.6852344,12.8556641 56.3090625,12.8556641 C55.2965625,12.8556641 54.7903125,12.4320313 54.7903125,11.5847656 L54.7903125,11.5847656 L53.2030078,11.5847656 C53.2030078,12.0804688 53.3304492,12.5164062 53.585332,12.8925781 C53.8402148,13.26875 54.2102344,13.5649414 54.6953906,13.7811523 C55.1805469,13.9973633 55.7184375,14.1054688 56.3090625,14.1054688 Z M63.23625,14.1054688 C64.13625,14.1054688 64.8613477,13.8681641 65.411543,13.3935547 C65.9617383,12.9189453 66.2667188,12.2685547 66.3264844,11.4423828 L66.3264844,11.4423828 L64.7444531,11.4423828 C64.7092969,11.9099609 64.5713086,12.2553711 64.3304883,12.4786133 C64.089668,12.7018555 63.7249219,12.8134766 63.23625,12.8134766 C62.6948438,12.8134766 62.298457,12.621875 62.0470898,12.2386719 C61.7957227,11.8554688 61.6700391,11.2490234 61.6700391,10.4193359 L61.6700391,10.4193359 L61.6700391,9.83925781 C61.6770703,9.04472656 61.811543,8.45849609 62.073457,8.08056641 C62.3353711,7.70263672 62.73,7.51367188 63.2573438,7.51367188 C63.7425,7.51367188 64.1037305,7.62529297 64.3410352,7.84853516 C64.5783398,8.07177734 64.7163281,8.43125 64.755,8.92695313 L64.755,8.92695313 L66.3370313,8.92695313 C66.2526563,8.06914062 65.9397656,7.40292969 65.3983594,6.92832031 C64.8569531,6.45371094 64.1432813,6.21640625 63.2573438,6.21640625 C62.6175,6.21640625 62.0558789,6.36669922 61.5724805,6.66728516 C61.089082,6.96787109 60.7173047,7.39941406 60.4571484,7.96191406 C60.1969922,8.52441406 60.0669141,9.17480469 60.0669141,9.91308594 L60.0669141,9.91308594 L60.0669141,10.3824219 C60.0669141,11.5390625 60.349043,12.4487305 60.9133008,13.1114258 C61.4775586,13.7741211 62.251875,14.1054688 63.23625,14.1054688 Z M72.4415625,14 L72.4415625,12.7291016 L69.0823828,12.7291016 L69.0823828,6.321875 L67.5003516,6.321875 L67.5003516,14 L72.4415625,14 Z M78.6304688,14 L78.6304688,12.7291016 L75.065625,12.7291016 L75.065625,10.6724609 L78.103125,10.6724609 L78.103125,9.43320312 L75.065625,9.43320312 L75.065625,7.60332031 L78.6199219,7.60332031 L78.6199219,6.321875 L73.4835938,6.321875 L73.4835938,14 L78.6304688,14 Z M39.6703125,26 C40.5421875,25.9929687 41.2136719,25.7996094 41.6847656,25.4199219 C42.1558594,25.0402344 42.3914063,24.48125 42.3914063,23.7429687 C42.3914063,23.3105469 42.2780273,22.9449219 42.0512695,22.6460937 C41.8245117,22.3472656 41.5142578,22.1486328 41.1205078,22.0501953 C41.4650391,21.9166016 41.7339844,21.706543 41.9273437,21.4200195 C42.1207031,21.1334961 42.2173828,20.8021484 42.2173828,20.4259766 C42.2173828,19.7369141 41.9765625,19.2139648 41.4949219,18.8571289 C41.0132812,18.500293 40.3066406,18.321875 39.375,18.321875 L39.375,18.321875 L36.6855469,18.321875 L36.6855469,26 L39.6703125,26 Z M39.4382813,21.5386719 L38.2675781,21.5386719 L38.2675781,19.6033203 L39.375,19.6033203 C39.8109375,19.6033203 40.1299805,19.6797852 40.3321289,19.8327148 C40.5342773,19.9856445 40.6353516,20.2361328 40.6353516,20.5841797 C40.6353516,21.2064453 40.2363281,21.5246094 39.4382813,21.5386719 L39.4382813,21.5386719 Z M39.6228516,24.7291016 L38.2675781,24.7291016 L38.2675781,22.6566406 L39.7177734,22.6566406 C40.4455078,22.6671875 40.809375,23.0240234 40.809375,23.7271484 C40.809375,24.0400391 40.7047852,24.2852539 40.4956055,24.462793 C40.2864258,24.640332 39.9955078,24.7291016 39.6228516,24.7291016 L39.6228516,24.7291016 Z M46.7609766,26.1054688 C47.4043359,26.1054688 47.9747461,25.9507812 48.472207,25.6414062 C48.969668,25.3320312 49.3519922,24.8925781 49.6191797,24.3230469 C49.8863672,23.7535156 50.0199609,23.0908203 50.0199609,22.3349609 L50.0199609,22.3349609 L50.0199609,21.9921875 C50.0199609,21.2398437 49.8837305,20.5762695 49.6112695,20.0014648 C49.3388086,19.4266602 48.9538477,18.9854492 48.4563867,18.677832 C47.9589258,18.3702148 47.3902734,18.2164062 46.7504297,18.2164062 C46.1105859,18.2164062 45.5419336,18.3702148 45.0444727,18.677832 C44.5470117,18.9854492 44.1620508,19.4266602 43.8895898,20.0014648 C43.6171289,20.5762695 43.4808984,21.2416016 43.4808984,21.9974609 L43.4808984,21.9974609 L43.4808984,22.3771484 C43.4844141,23.1154297 43.6232813,23.768457 43.8975,24.3362305 C44.1717188,24.9040039 44.5584375,25.3408203 45.0576563,25.6466797 C45.556875,25.9525391 46.1246484,26.1054688 46.7609766,26.1054688 Z M46.7609766,24.8082031 C46.2195703,24.8082031 45.8047266,24.5919922 45.5164453,24.1595703 C45.2281641,23.7271484 45.0840234,23.1189453 45.0840234,22.3349609 L45.0840234,22.3349609 L45.0840234,21.9605469 C45.0875391,21.1625 45.2334375,20.5569336 45.5217188,20.1438477 C45.81,19.7307617 46.2195703,19.5242187 46.7504297,19.5242187 C47.2848047,19.5242187 47.6961328,19.7333984 47.9844141,20.1517578 C48.2726953,20.5701172 48.4168359,21.1818359 48.4168359,21.9869141 L48.4168359,21.9869141 L48.4168359,22.3613281 C48.4133203,23.159375 48.2691797,23.7666992 47.9844141,24.1833008 C47.6996484,24.5999023 47.2918359,24.8082031 46.7609766,24.8082031 Z M54.3526172,26.1054688 C54.9959766,26.1054688 55.5663867,25.9507812 56.0638477,25.6414062 C56.5613086,25.3320312 56.9436328,24.8925781 57.2108203,24.3230469 C57.4780078,23.7535156 57.6116016,23.0908203 57.6116016,22.3349609 L57.6116016,22.3349609 L57.6116016,21.9921875 C57.6116016,21.2398437 57.4753711,20.5762695 57.2029102,20.0014648 C56.9304492,19.4266602 56.5454883,18.9854492 56.0480273,18.677832 C55.5505664,18.3702148 54.9819141,18.2164062 54.3420703,18.2164062 C53.7022266,18.2164062 53.1335742,18.3702148 52.6361133,18.677832 C52.1386523,18.9854492 51.7536914,19.4266602 51.4812305,20.0014648 C51.2087695,20.5762695 51.0725391,21.2416016 51.0725391,21.9974609 L51.0725391,21.9974609 L51.0725391,22.3771484 C51.0760547,23.1154297 51.2149219,23.768457 51.4891406,24.3362305 C51.7633594,24.9040039 52.1500781,25.3408203 52.6492969,25.6466797 C53.1485156,25.9525391 53.7162891,26.1054688 54.3526172,26.1054688 Z M54.3526172,24.8082031 C53.8112109,24.8082031 53.3963672,24.5919922 53.1080859,24.1595703 C52.8198047,23.7271484 52.6756641,23.1189453 52.6756641,22.3349609 L52.6756641,22.3349609 L52.6756641,21.9605469 C52.6791797,21.1625 52.8250781,20.5569336 53.1133594,20.1438477 C53.4016406,19.7307617 53.8112109,19.5242187 54.3420703,19.5242187 C54.8764453,19.5242187 55.2877734,19.7333984 55.5760547,20.1517578 C55.8643359,20.5701172 56.0084766,21.1818359 56.0084766,21.9869141 L56.0084766,21.9869141 L56.0084766,22.3613281 C56.0049609,23.159375 55.8608203,23.7666992 55.5760547,24.1833008 C55.2912891,24.5999023 54.8834766,24.8082031 54.3526172,24.8082031 Z M61.6805859,26.1054688 C62.5313672,26.1054688 63.208125,25.9165039 63.7108594,25.5385742 C64.2135938,25.1606445 64.4649609,24.6394531 64.4649609,23.975 C64.4649609,23.3773438 64.2592969,22.878125 63.8479688,22.4773437 C63.4366406,22.0765625 62.7809766,21.7408203 61.8809766,21.4701172 C61.3923047,21.3224609 61.0222852,21.1642578 60.770918,20.9955078 C60.5195508,20.8267578 60.3938672,20.6175781 60.3938672,20.3679687 C60.3938672,20.1007813 60.5010938,19.8854492 60.7155469,19.7219727 C60.93,19.5584961 61.2305859,19.4767578 61.6173047,19.4767578 C62.0180859,19.4767578 62.3292188,19.5743164 62.5507031,19.7694336 C62.7721875,19.9645508 62.8829297,20.2378906 62.8829297,20.5894531 L62.8829297,20.5894531 L64.4649609,20.5894531 C64.4649609,20.1289062 64.3463086,19.7175781 64.1090039,19.3554688 C63.8716992,18.9933594 63.5385938,18.7129883 63.1096875,18.5143555 C62.6807813,18.3157227 62.1921094,18.2164062 61.6436719,18.2164062 C61.09875,18.2164062 60.6074414,18.3078125 60.1697461,18.490625 C59.7320508,18.6734375 59.3963086,18.9274414 59.1625195,19.2526367 C58.9287305,19.577832 58.8118359,19.9478516 58.8118359,20.3626953 C58.8118359,21.1607422 59.2477734,21.7953125 60.1196484,22.2664062 C60.4395703,22.4386719 60.87375,22.6135742 61.4221875,22.7911133 C61.970625,22.9686523 62.3503125,23.1374023 62.56125,23.2973633 C62.7721875,23.4573242 62.8776563,23.6867188 62.8776563,23.9855469 C62.8776563,24.2597656 62.7721875,24.4733398 62.56125,24.6262695 C62.3503125,24.7791992 62.0567578,24.8556641 61.6805859,24.8556641 C60.6680859,24.8556641 60.1618359,24.4320313 60.1618359,23.5847656 L60.1618359,23.5847656 L58.5745313,23.5847656 C58.5745313,24.0804688 58.7019727,24.5164062 58.9568555,24.8925781 C59.2117383,25.26875 59.5817578,25.5649414 60.0669141,25.7811523 C60.5520703,25.9973633 61.0899609,26.1054688 61.6805859,26.1054688 Z M69.0982031,26 L69.0982031,19.6033203 L71.4501563,19.6033203 L71.4501563,18.321875 L65.1958594,18.321875 L65.1958594,19.6033203 L67.5161719,19.6033203 L67.5161719,26 L69.0982031,26 Z M77.6337891,26 L77.6337891,24.7291016 L74.0689453,24.7291016 L74.0689453,22.6724609 L77.1064453,22.6724609 L77.1064453,21.4332031 L74.0689453,21.4332031 L74.0689453,19.6033203 L77.6232422,19.6033203 L77.6232422,18.321875 L72.4869141,18.321875 L72.4869141,26 L77.6337891,26 Z M80.2789453,26 L80.2789453,23.1892578 L81.5392969,23.1892578 L82.9789453,26 L84.6769922,26 L84.6769922,25.9261719 L83.0158594,22.7884766 C83.4764063,22.5810547 83.8200586,22.3024414 84.0468164,21.9526367 C84.2735742,21.602832 84.3869531,21.1660156 84.3869531,20.6421875 C84.3869531,19.9039062 84.1408594,19.3326172 83.6486719,18.9283203 C83.1564844,18.5240234 82.456875,18.321875 81.5498438,18.321875 L81.5498438,18.321875 L78.6969141,18.321875 L78.6969141,26 L80.2789453,26 Z M81.5551172,21.9078125 L80.2789453,21.9078125 L80.2789453,19.6033203 L81.5498438,19.6033203 C81.9752344,19.6033203 82.2907617,19.7070312 82.4964258,19.9144531 C82.7020899,20.121875 82.8049219,20.4066406 82.8049219,20.76875 C82.8049219,21.1238281 82.6959375,21.4024414 82.4779688,21.6045898 C82.26,21.8067383 81.9523828,21.9078125 81.5551172,21.9078125 L81.5551172,21.9078125 Z" id="MUSCLEBOOSTER" fill="#1D1D1D" fill-rule="nonzero"></path>
            </g>
        </g>
    </g>
</svg>